<svg width="300" height="300" viewBox="0 0 300 300" fill="none" xmlns="http://www.w3.org/2000/svg">
<g filter="url(#filter0_i_25_41)">
<g clip-path="url(#clip0_25_41)">
<rect width="300" height="300" rx="16" fill="#141414"/>
<path d="M88.2898 161.118L191.142 58.2661L231.72 98.8444C239.521 106.645 244.677 114.781 247.188 123.252C249.733 131.689 249.816 139.975 247.439 148.111C245.129 156.247 240.559 163.73 233.729 170.56C226.899 177.39 219.399 181.943 211.23 184.22C203.061 186.496 194.724 186.295 186.22 183.617C177.75 180.972 169.564 175.699 161.662 167.797L135.799 141.934L153.225 124.507L175.573 146.855C179.758 151.04 183.927 153.769 188.078 155.041C192.297 156.314 196.365 156.33 200.282 155.092C204.266 153.853 207.949 151.543 211.33 148.161C214.745 144.746 217.039 141.08 218.211 137.163C219.449 133.246 219.399 129.211 218.06 125.06C216.754 120.875 213.992 116.673 209.774 112.454L195.109 97.7898L110.035 182.864L88.2898 161.118Z" fill="white"/>
<rect x="187.645" y="61.9097" width="41.5882" height="179.472" transform="rotate(45 187.645 61.9097)" fill="white"/>
<g filter="url(#filter1_dd_25_41)">
<rect x="59.3633" y="83.3303" width="26.5254" height="193.825" transform="rotate(-45 59.3633 83.3303)" fill="url(#paint0_linear_25_41)"/>
</g>
</g>
<rect x="0.5" y="0.5" width="299" height="299" rx="15.5" stroke="white" stroke-opacity="0.24"/>
</g>
<defs>
<filter id="filter0_i_25_41" x="0" y="0" width="300" height="300" filterUnits="userSpaceOnUse" color-interpolation-filters="sRGB">
<feFlood flood-opacity="0" result="BackgroundImageFix"/>
<feBlend mode="normal" in="SourceGraphic" in2="BackgroundImageFix" result="shape"/>
<feColorMatrix in="SourceAlpha" type="matrix" values="0 0 0 0 0 0 0 0 0 0 0 0 0 0 0 0 0 0 127 0" result="hardAlpha"/>
<feMorphology radius="13" operator="erode" in="SourceAlpha" result="effect1_innerShadow_25_41"/>
<feOffset/>
<feGaussianBlur stdDeviation="27.75"/>
<feComposite in2="hardAlpha" operator="arithmetic" k2="-1" k3="1"/>
<feColorMatrix type="matrix" values="0 0 0 0 0 0 0 0 0 0 0 0 0 0 0 0 0 0 0.65 0"/>
<feBlend mode="normal" in2="shape" result="effect1_innerShadow_25_41"/>
</filter>
<filter id="filter1_dd_25_41" x="55.8633" y="63.574" width="175.311" height="168.311" filterUnits="userSpaceOnUse" color-interpolation-filters="sRGB">
<feFlood flood-opacity="0" result="BackgroundImageFix"/>
<feColorMatrix in="SourceAlpha" type="matrix" values="0 0 0 0 0 0 0 0 0 0 0 0 0 0 0 0 0 0 127 0" result="hardAlpha"/>
<feOffset dx="16" dy="-1"/>
<feComposite in2="hardAlpha" operator="out"/>
<feColorMatrix type="matrix" values="0 0 0 0 0.0784314 0 0 0 0 0.0784314 0 0 0 0 0.0784314 0 0 0 1 0"/>
<feBlend mode="normal" in2="BackgroundImageFix" result="effect1_dropShadow_25_41"/>
<feColorMatrix in="SourceAlpha" type="matrix" values="0 0 0 0 0 0 0 0 0 0 0 0 0 0 0 0 0 0 127 0" result="hardAlpha"/>
<feOffset dy="8"/>
<feGaussianBlur stdDeviation="1.75"/>
<feComposite in2="hardAlpha" operator="out"/>
<feColorMatrix type="matrix" values="0 0 0 0 0 0 0 0 0 0 0 0 0 0 0 0 0 0 0.36 0"/>
<feBlend mode="normal" in2="effect1_dropShadow_25_41" result="effect2_dropShadow_25_41"/>
<feBlend mode="normal" in="SourceGraphic" in2="effect2_dropShadow_25_41" result="shape"/>
</filter>
<linearGradient id="paint0_linear_25_41" x1="72.626" y1="83.3303" x2="72.626" y2="277.155" gradientUnits="userSpaceOnUse">
<stop stop-color="#27FC56"/>
<stop offset="1" stop-color="#6B3EEA"/>
</linearGradient>
<clipPath id="clip0_25_41">
<rect width="300" height="300" rx="16" fill="white"/>
</clipPath>
</defs>
</svg>
